<svg xmlns="http://www.w3.org/2000/svg" width="720" height="700.208"><g data-name="Group 142" transform="translate(-704.46 -300)"><path data-name="Path 2296" d="M1292.562 389.244A284.589 284.589 0 001096.626 300v285.181z" fill="#090814"/><path data-name="Path 2297" d="M1292.562 424.753L1096.626 620.69h273.826a284.437 284.437 0 00-77.89-195.937z" fill="#e4e4e4"/><path data-name="Path 2298" d="M1370.745 641.182a286.184 286.184 0 01-4.913 52.981 201.481 201.481 0 01-.805 4.122 283.111 283.111 0 01-33.034 86.566c-.833 1.44-1.694 2.88-2.555 4.292v.014a286.317 286.317 0 01-57.315 67.8 214.952 214.952 0 01-3.36 2.88 284.188 284.188 0 01-172.144 66.52V641.182z" fill="#f0f0f0"/><path data-name="Path 2299" d="M1068.924 926.61c3.79 0 7.558-.1 11.313-.243V641.175l-207.4 207.4a284.442 284.442 0 00196.09 78.032z" fill="#cacaca"/><path data-name="Path 2300" d="M1069.311 335.255c-157.642 0-285.435 127.794-285.435 285.435h297.044V335.509a290.377 290.377 0 00-11.609-.254z" fill="#6d28d9"/><path data-name="Path 2301" d="M1001.215 641.182l-60.011 60.012-1.962 1.962-.043.042-52.332 52.318-1.99 1.991-56.537 56.539-1.991 1.991v.014l-32.54 32.526a284.612 284.612 0 01-89.349-207.395z" fill="#6d28d9"/><path data-name="Path 2314" d="M1420.931 928.21H883.07a1.412 1.412 0 110-2.823h537.861a1.412 1.412 0 010 2.823z" fill="#f0f0f0"/><path data-name="Path 2315" d="M1421.637 998.796V460.935a1.412 1.412 0 112.823 0v537.861a1.412 1.412 0 11-2.823 0z" fill="#f0f0f0"/><circle data-name="Ellipse 420" cx="22.587" cy="22.587" r="22.587" transform="translate(1318.582 955.033)" fill="#f0f0f0"/><circle data-name="Ellipse 421" cx="22.587" cy="22.587" r="22.587" transform="translate(769.427 318.352)" fill="#f0f0f0"/><path data-name="Path 2317" d="M826.347 816.048a258.744 258.744 0 01-76.513-174.764l5.643-.2a253.115 253.115 0 0074.85 170.962z" fill="#3f3d56"/><path data-name="Path 2318" d="M886.924 755.573l-4.094 3.868a259.615 259.615 0 01-63.866-117.6l2.739-.664h2.907a254.1 254.1 0 0062.257 114.334z" fill="#3f3d56"/><path data-name="Path 2319" d="M941.36 701.391l-2.118 1.765-.043.042-2.173 1.804a259.419 259.419 0 01-38.766-62.691l2.583-1.129h3.092a253.514 253.514 0 0037.269 60.012 1.863 1.863 0 00.156.197z" fill="#3f3d56"/></g></svg>